<?xml version="1.0" standalone="no"?>
<!DOCTYPE svg PUBLIC "-//W3C//DTD SVG 20010904//EN"
 "http://www.w3.org/TR/2001/REC-SVG-20010904/DTD/svg10.dtd">
<svg version="1.0" xmlns="http://www.w3.org/2000/svg"
 width="2550.000000pt" height="3300.000000pt" viewBox="0 0 2550.000000 3300.000000"
 preserveAspectRatio="xMidYMid meet">

<g transform="translate(0.000000,3300.000000) scale(0.100000,-0.100000)"
fill="#000000" stroke="none">
<path d="M7495 21735 c-1011 -137 -1794 -955 -1885 -1970 -8 -82 -10 -705 -7
-1975 l3 -1855 22 -115 c46 -237 103 -410 199 -607 291 -594 867 -1039 1508
-1168 219 -44 259 -45 1544 -45 l1230 0 -7 38 c-4 20 -7 685 -7 1477 0 1149 3
1447 13 1476 8 23 48 71 110 131 73 72 1514 1424 2294 2154 81 76 114 86 166
51 20 -14 573 -527 1227 -1141 868 -813 1199 -1129 1223 -1168 l32 -53 -2
-1465 c-2 -806 -7 -1473 -12 -1482 -8 -17 60 -18 1348 -18 883 0 1391 4 1454
11 495 53 953 271 1303 619 337 335 542 736 626 1221 16 97 18 233 21 1949 2
1258 -1 1883 -8 1965 -66 738 -502 1392 -1160 1739 -191 100 -399 172 -635
219 l-110 21 -5195 2 c-4315 2 -5212 0 -5295 -11z"/>
<path d="M4915 19777 c-119 -45 -201 -120 -258 -237 l-32 -65 -3 -1580 -2
-1579 21 -64 c43 -130 159 -242 292 -283 55 -17 87 -21 166 -17 89 3 105 7
174 41 85 42 169 124 207 201 52 108 50 38 50 1681 0 1352 -2 1538 -16 1590
-32 124 -122 233 -243 293 -71 35 -80 37 -185 40 -95 2 -120 -1 -171 -21z"/>
<path d="M20285 19782 c-149 -52 -262 -172 -299 -317 -14 -52 -16 -238 -16
-1590 0 -995 4 -1545 11 -1574 29 -129 125 -248 246 -308 69 -34 85 -38 174
-41 79 -4 111 0 166 17 133 41 249 153 292 283 l21 64 -2 1574 -3 1575 -22 55
c-46 111 -143 208 -253 252 -76 30 -243 36 -315 10z"/>
<path d="M11853 18258 c-411 -387 -900 -847 -1085 -1023 l-337 -320 -5 -1328
c-5 -1309 -5 -1328 14 -1347 19 -19 38 -20 663 -20 499 0 647 3 660 13 15 11
17 80 20 792 3 770 3 781 25 865 78 293 293 517 587 610 94 30 290 38 391 17
321 -68 572 -309 655 -627 22 -84 23 -98 26 -865 4 -710 5 -781 20 -792 26
-20 1292 -19 1319 1 19 14 19 37 15 1353 l-4 1338 -1084 1018 c-814 763 -1090
1017 -1108 1017 -18 0 -212 -177 -772 -702z"/>
<path d="M7910 13045 l0 -775 140 0 140 0 0 300 0 300 98 0 98 0 209 -296
c116 -163 215 -298 220 -300 6 -3 83 -3 171 -2 l160 3 -232 315 c-127 173
-229 318 -225 321 3 3 32 15 64 27 177 66 280 199 294 379 17 223 -96 390
-310 458 -111 35 -227 45 -539 45 l-288 0 0 -775z m639 525 c86 -14 153 -50
182 -97 20 -31 24 -52 24 -113 0 -107 -27 -153 -115 -198 -78 -39 -159 -52
-327 -52 l-123 0 0 235 0 235 148 0 c81 0 176 -5 211 -10z"/>
<path d="M9400 13045 l0 -775 520 0 520 0 0 120 0 120 -380 0 -380 0 0 215 0
215 310 0 310 0 0 120 0 120 -310 0 -310 0 0 200 0 200 360 0 360 0 0 120 0
120 -500 0 -500 0 0 -775z"/>
<path d="M10912 13063 c-165 -417 -304 -766 -308 -776 -6 -16 4 -17 146 -15
l153 3 71 193 71 192 300 0 300 0 71 -193 72 -192 152 -3 c87 -1 150 1 148 6
-1 5 -140 354 -308 776 l-305 766 -131 0 -130 0 -302 -757z m542 111 c53 -144
96 -264 96 -268 0 -3 -92 -6 -205 -6 -113 0 -205 3 -205 6 0 6 35 101 192 523
5 14 12 20 17 15 4 -5 51 -126 105 -270z"/>
<path d="M12320 13045 l0 -775 505 0 505 0 0 120 0 120 -365 0 -365 0 0 655 0
655 -140 0 -140 0 0 -775z"/>
<path d="M13600 13045 l0 -775 140 0 140 0 0 775 0 775 -140 0 -140 0 0 -775z"/>
<path d="M14800 13811 c0 -6 531 -1365 597 -1528 4 -10 40 -13 132 -13 l128 0
301 769 c166 423 302 772 302 775 0 3 -67 6 -148 6 l-149 0 -185 -497 c-102
-274 -198 -535 -214 -580 -16 -46 -31 -83 -34 -83 -3 0 -18 37 -34 83 -16 45
-112 306 -214 580 l-185 497 -149 0 c-81 0 -148 -4 -148 -9z"/>
<path d="M16480 13045 l0 -775 140 0 140 0 0 300 0 300 98 0 98 0 209 -296
c116 -163 215 -298 220 -300 6 -3 83 -3 171 -2 l160 3 -232 315 c-127 173
-229 318 -225 321 3 3 32 15 64 27 177 66 280 199 294 379 17 223 -96 390
-310 458 -111 35 -227 45 -539 45 l-288 0 0 -775z m639 525 c86 -14 153 -50
182 -97 20 -31 24 -52 24 -113 0 -107 -27 -153 -115 -198 -78 -39 -159 -52
-327 -52 l-123 0 0 235 0 235 148 0 c81 0 176 -5 211 -10z"/>
<path d="M14200 12855 l0 -125 255 0 255 0 0 125 0 125 -255 0 -255 0 0 -125z"/>
</g>
</svg>
